<svg xmlns="http://www.w3.org/2000/svg" viewBox="0 0 512 512" role="img" aria-label="Tanisha Ethnics logo">
<defs><linearGradient id="g" x1="0" y1="0" x2="1" y2="1"><stop stop-color="#6f3f27"/><stop offset="1" stop-color="#c69a58"/></linearGradient></defs>
<circle cx="256" cy="256" r="246" fill="#fffaf5" stroke="#3a2118" stroke-width="12"/><circle cx="256" cy="256" r="218" fill="none" stroke="#c69a58" stroke-width="5"/>
<path d="M256 104c-67 0-121 54-121 121 0 72 59 105 121 182 62-77 121-110 121-182 0-67-54-121-121-121Zm0 52c38 0 69 31 69 69 0 37-27 62-69 111-42-49-69-74-69-111 0-38 31-69 69-69Z" fill="url(#g)"/>
<path d="M143 390c73 37 153 37 226 0" fill="none" stroke="#c88291" stroke-width="14" stroke-linecap="round"/>
<text x="256" y="70" text-anchor="middle" font-family="Georgia,serif" font-size="30" font-weight="700" fill="#3a2118" letter-spacing="4">TANISHA</text>
<text x="256" y="463" text-anchor="middle" font-family="Arial,sans-serif" font-size="25" font-weight="700" fill="#b7874f" letter-spacing="7">ETHNICS</text>
</svg>
